<mxfile host="app.diagrams.net" agent="Mozilla/5.0 (Windows NT 10.0; Win64; x64) AppleWebKit/537.36 (KHTML, like Gecko) Chrome/121.0.0.0 Safari/537.36" version="26.0.14">
  <diagram id="prtHgNgQTEPvFCAcTncT" name="Page-1">
    <mxGraphModel dx="1018" dy="741" grid="1" gridSize="10" guides="1" tooltips="1" connect="1" arrows="1" fold="1" page="1" pageScale="1" pageWidth="827" pageHeight="1169" math="0" shadow="0">
      <root>
        <mxCell id="0" />
        <mxCell id="1" parent="0" />
        <mxCell id="dPh0YnoqMdTxFVqWjKZc-13" style="edgeStyle=orthogonalEdgeStyle;rounded=0;orthogonalLoop=1;jettySize=auto;html=1;exitX=1;exitY=0.25;exitDx=0;exitDy=0;entryX=0;entryY=0.25;entryDx=0;entryDy=0;" edge="1" parent="1" source="dPh0YnoqMdTxFVqWjKZc-1" target="dPh0YnoqMdTxFVqWjKZc-4">
          <mxGeometry relative="1" as="geometry" />
        </mxCell>
        <mxCell id="dPh0YnoqMdTxFVqWjKZc-1" value="日志记录组件&lt;div&gt;（级别过滤，格式化）&lt;/div&gt;" style="rounded=1;whiteSpace=wrap;html=1;" vertex="1" parent="1">
          <mxGeometry x="280" y="180" width="120" height="60" as="geometry" />
        </mxCell>
        <mxCell id="dPh0YnoqMdTxFVqWjKZc-5" style="edgeStyle=orthogonalEdgeStyle;rounded=0;orthogonalLoop=1;jettySize=auto;html=1;exitX=1;exitY=0.25;exitDx=0;exitDy=0;entryX=0;entryY=0.25;entryDx=0;entryDy=0;" edge="1" parent="1" source="dPh0YnoqMdTxFVqWjKZc-2" target="dPh0YnoqMdTxFVqWjKZc-1">
          <mxGeometry relative="1" as="geometry" />
        </mxCell>
        <mxCell id="dPh0YnoqMdTxFVqWjKZc-6" style="edgeStyle=orthogonalEdgeStyle;rounded=0;orthogonalLoop=1;jettySize=auto;html=1;exitX=1;exitY=0.75;exitDx=0;exitDy=0;entryX=0;entryY=0.75;entryDx=0;entryDy=0;" edge="1" parent="1" source="dPh0YnoqMdTxFVqWjKZc-2" target="dPh0YnoqMdTxFVqWjKZc-1">
          <mxGeometry relative="1" as="geometry" />
        </mxCell>
        <mxCell id="dPh0YnoqMdTxFVqWjKZc-7" style="edgeStyle=orthogonalEdgeStyle;rounded=0;orthogonalLoop=1;jettySize=auto;html=1;exitX=0.75;exitY=1;exitDx=0;exitDy=0;entryX=0.25;entryY=0;entryDx=0;entryDy=0;" edge="1" parent="1" source="dPh0YnoqMdTxFVqWjKZc-2" target="dPh0YnoqMdTxFVqWjKZc-3">
          <mxGeometry relative="1" as="geometry" />
        </mxCell>
        <mxCell id="dPh0YnoqMdTxFVqWjKZc-2" value="指令响应处理" style="rounded=1;whiteSpace=wrap;html=1;" vertex="1" parent="1">
          <mxGeometry x="120" y="180" width="120" height="60" as="geometry" />
        </mxCell>
        <mxCell id="dPh0YnoqMdTxFVqWjKZc-8" style="edgeStyle=orthogonalEdgeStyle;rounded=0;orthogonalLoop=1;jettySize=auto;html=1;exitX=0;exitY=0.25;exitDx=0;exitDy=0;entryX=0.5;entryY=1;entryDx=0;entryDy=0;" edge="1" parent="1" source="dPh0YnoqMdTxFVqWjKZc-3" target="dPh0YnoqMdTxFVqWjKZc-2">
          <mxGeometry relative="1" as="geometry" />
        </mxCell>
        <mxCell id="dPh0YnoqMdTxFVqWjKZc-19" style="edgeStyle=orthogonalEdgeStyle;rounded=0;orthogonalLoop=1;jettySize=auto;html=1;exitX=0.25;exitY=1;exitDx=0;exitDy=0;entryX=0.25;entryY=0;entryDx=0;entryDy=0;" edge="1" parent="1" source="dPh0YnoqMdTxFVqWjKZc-3" target="dPh0YnoqMdTxFVqWjKZc-18">
          <mxGeometry relative="1" as="geometry" />
        </mxCell>
        <mxCell id="dPh0YnoqMdTxFVqWjKZc-3" value="dlt协议解析" style="rounded=1;whiteSpace=wrap;html=1;" vertex="1" parent="1">
          <mxGeometry x="220" y="280" width="120" height="60" as="geometry" />
        </mxCell>
        <mxCell id="dPh0YnoqMdTxFVqWjKZc-15" style="edgeStyle=orthogonalEdgeStyle;rounded=0;orthogonalLoop=1;jettySize=auto;html=1;exitX=0;exitY=0.75;exitDx=0;exitDy=0;entryX=1;entryY=0.75;entryDx=0;entryDy=0;" edge="1" parent="1" source="dPh0YnoqMdTxFVqWjKZc-4" target="dPh0YnoqMdTxFVqWjKZc-1">
          <mxGeometry relative="1" as="geometry" />
        </mxCell>
        <mxCell id="dPh0YnoqMdTxFVqWjKZc-4" value="本地储存组件" style="rounded=1;whiteSpace=wrap;html=1;" vertex="1" parent="1">
          <mxGeometry x="440" y="180" width="120" height="60" as="geometry" />
        </mxCell>
        <mxCell id="dPh0YnoqMdTxFVqWjKZc-17" style="edgeStyle=orthogonalEdgeStyle;rounded=0;orthogonalLoop=1;jettySize=auto;html=1;exitX=0.5;exitY=1;exitDx=0;exitDy=0;entryX=0.5;entryY=0;entryDx=0;entryDy=0;" edge="1" parent="1" source="dPh0YnoqMdTxFVqWjKZc-16" target="dPh0YnoqMdTxFVqWjKZc-1">
          <mxGeometry relative="1" as="geometry" />
        </mxCell>
        <mxCell id="dPh0YnoqMdTxFVqWjKZc-16" value="应用层API" style="rounded=1;whiteSpace=wrap;html=1;" vertex="1" parent="1">
          <mxGeometry x="280" y="80" width="120" height="60" as="geometry" />
        </mxCell>
        <mxCell id="dPh0YnoqMdTxFVqWjKZc-20" style="edgeStyle=orthogonalEdgeStyle;rounded=0;orthogonalLoop=1;jettySize=auto;html=1;exitX=0.75;exitY=0;exitDx=0;exitDy=0;entryX=0.75;entryY=1;entryDx=0;entryDy=0;" edge="1" parent="1" source="dPh0YnoqMdTxFVqWjKZc-18" target="dPh0YnoqMdTxFVqWjKZc-3">
          <mxGeometry relative="1" as="geometry" />
        </mxCell>
        <mxCell id="dPh0YnoqMdTxFVqWjKZc-18" value="日志外部工具" style="rounded=1;whiteSpace=wrap;html=1;" vertex="1" parent="1">
          <mxGeometry x="220" y="370" width="120" height="60" as="geometry" />
        </mxCell>
      </root>
    </mxGraphModel>
  </diagram>
</mxfile>
